<?xml version="1.0" encoding="utf-8"?>
<!-- Generator: Adobe Illustrator 18.1.1, SVG Export Plug-In . SVG Version: 6.00 Build 0)  -->
<svg version="1.1" id="Layer_1" xmlns="http://www.w3.org/2000/svg" xmlns:xlink="http://www.w3.org/1999/xlink" x="0px" y="0px"
	 viewBox="-17.5 -173 1093.2 1094" enable-background="new -17.5 -173 1093.2 1094" xml:space="preserve">
<circle fill="#45CBBC" cx="529" cy="374" r="542.3"/>
<g>
	<g id="kE4gyy_1_">
		<g>
			<path fill="#FFFFFF" d="M679.7,409.7c5.7-45.9,11.5-88.9,14.3-134.7c-43,0-83.1,0-123.3,0c0-25.8,0-77.4,0-100.3
				c0-31.5,14.3-45.9,45.9-45.9c25.8,0,51.6,0,77.4,0c0-45.9,0-91.7,0-134.7c-51.6,0-103.2,0-154.8,0c-20.1,0-37.3,8.6-57.3,17.2
				c-45.9,22.9-68.8,63.1-71.7,114.7c-2.9,43,0,111.8,0,154.8c-25.8,0-51.6,0-77.4,0c0,45.9,0,86,0,131.9c25.8,0,51.6,0,77.4,0
				c0,131.9,0,237.9,0,369.8c54.5,0,106.1,0,160.5,0c0-131.9,0-237.9,0-369.8C608,409.7,642.4,409.7,679.7,409.7z"/>
		</g>
	</g>
</g>
</svg>
