<?xml version="1.0" encoding="utf-8"?>
<!-- Generator: Adobe Illustrator 18.1.1, SVG Export Plug-In . SVG Version: 6.00 Build 0)  -->
<svg version="1.1" id="Layer_1" xmlns="http://www.w3.org/2000/svg" xmlns:xlink="http://www.w3.org/1999/xlink" x="0px" y="0px"
	 viewBox="-69 -183 1134 1135" enable-background="new -69 -183 1134 1135" xml:space="preserve">
<circle fill="#45CBBC" cx="498" cy="385.1" r="562.3"/>
<g>
	<circle fill="#45CBBC" cx="507.8" cy="382.6" r="149.8"/>
	<path fill="#FFFFFF" d="M507.8,762.5c-55.5,0-113.7,0-169.1,0c-113.7,0-188.5-77.6-188.5-188.5c0-116.4,0-260.6,0-377.1
		c0-113.7,77.6-191.3,191.3-191.3s230.1,0,343.8,0s191.3,77.6,191.3,191.3c0,116.4,0,260.6,0,377.1c0,110.9-74.9,188.5-185.8,188.5
		C627.1,762.5,568.8,762.5,507.8,762.5z M674.2,316.1c25,83.2,13.9,158-58.2,210.7c-55.5,41.6-116.4,47.1-177.4,13.9
		c-91.5-49.9-110.9-130.3-83.2-224.6c-47.1,0-91.5,0-138.6,0c0,77.6,0,183,0,260.6c0,69.3,44.4,119.2,113.7,119.2
		c119.2,2.8,241.2,2.8,360.4,0c72.1,0,113.7-49.9,113.7-122c0-38.8,0-108.1,0-146.9c0-36,0-72.1,0-110.9
		C760.1,316.1,718.6,316.1,674.2,316.1z M516.2,512.9c66.5,0,122-58.2,124.8-124.8c0-66.5-61-127.5-127.5-124.8
		c-69.3,0-124.8,61-122,130.3C394.2,460.2,449.6,512.9,516.2,512.9z"/>
	<rect x="640.1" y="99.8" fill="#45CBBC" width="105.4" height="113.7"/>
</g>
</svg>
