<?xml version="1.0" encoding="utf-8"?>
<!-- Generator: Adobe Illustrator 18.1.1, SVG Export Plug-In . SVG Version: 6.00 Build 0)  -->
<svg version="1.1" id="Layer_1" xmlns="http://www.w3.org/2000/svg" xmlns:xlink="http://www.w3.org/1999/xlink" x="0px" y="0px"
	 viewBox="118.4 0 779.6 768" enable-background="new 118.4 0 779.6 768" xml:space="preserve">
<g>
	<circle fill="#45CBBC" cx="512" cy="382.6" r="379.9"/>
	<path fill="#FFFFFF" d="M427.9,814.1c-21.7-76-24.4-149.3-13.6-222.5c8.1-43.4,10.9-89.6,13.6-135.7c0-8.1-2.7-13.6-5.4-21.7
		c-16.3-35.3-19-70.6-8.1-105.8c8.1-24.4,29.9-43.4,57-46.1c24.4-2.7,46.1,8.1,51.6,35.3c2.7,27.1,0,57,0,84.1
		c0,21.7-5.4,43.4-8.1,65.1c-2.7,24.4,5.4,46.1,27.1,59.7c24.4,13.6,48.8,13.6,73.3,0c32.6-19,48.8-48.8,57-81.4
		c16.3-62.4,16.3-122.1-8.1-181.8c-19-43.4-57-67.8-105.8-73.3c-70.6-5.4-133,10.9-181.8,67.8c-51.6,57-57,135.7-29.9,195.4
		c2.7,2.7,2.7,8.1,8.1,10.9c27.1,16.3,21.7,40.7,19,62.4c-2.7,13.6-10.9,16.3-21.7,10.9c-38-13.6-62.4-40.7-78.7-76
		c-21.7-48.8-21.7-97.7-8.1-149.3c40.7-152,230.7-217.1,352.8-173.7c92.3,32.6,154.7,122.1,152,214.4c-2.7,76-13.6,146.5-73.3,203.5
		c-43.4,40.7-135.7,70.6-200.8,16.3C487.6,654,484.9,740.9,427.9,814.1"/>
</g>
</svg>
