<?xml version="1.0" encoding="utf-8"?>
<!-- Generator: Adobe Illustrator 18.1.1, SVG Export Plug-In . SVG Version: 6.00 Build 0)  -->
<svg version="1.1" id="Layer_1" xmlns="http://www.w3.org/2000/svg" xmlns:xlink="http://www.w3.org/1999/xlink" x="0px" y="0px"
	 viewBox="127.3 0 768 764" enable-background="new 127.3 0 768 764" xml:space="preserve">
<circle fill="#45CBBC" cx="512" cy="380.9" r="379.9"/>
<g id="jLe0rI.tif">
	<g>
		<path fill="#FFFFFF" d="M298.2,544.7c53.1,0.8,101.6-11.4,145.2-45.4c-46.2-4.9-77.5-27.2-94.7-71c15.2,0,28.8,0,42.6,0
			c-47.9-18-75.2-50.1-78.5-101.6c14.8,4.1,28.4,7.7,42.2,11.2c-43.6-48.3-54.3-99.1-27-136.1c55.2,63.9,124.3,99.8,209.5,105.6
			c0-14.4-1.8-28.2,0.4-41.6c6.5-38.9,29.8-65.5,66.7-78.3s71.4-6.3,101,19.9c5.5,4.9,10.3,6.7,17,4.3c17.4-6.3,34.7-12.4,52.9-19.1
			c-6.5,21.7-20.9,37.3-38.9,50.1c0.4,1,0.6,2,1,2.8c17-4.5,34.1-8.7,51.1-13.2c0.6,0.6,1.2,1.4,2,2c-14.8,14.4-29.8,28.8-44.4,43.6
			c-2.6,2.6-5.1,7.1-5.1,10.7c0.2,81.5-28.2,151.9-83.1,211.3c-43.8,47.2-98.7,73.8-162.4,83.1c-63.3,9.3-123.5,0-180.5-29.4
			C309.1,551.2,303.7,547.9,298.2,544.7z"/>
	</g>
</g>
</svg>
